REM DIRINDEX 1\2,1\3,1\4,1\5
REM DIRNAME cjc093,folder01,folder02,folder03,folder04
TITLE ""
FILE "Round-14-334-335.mp3" MP3
  TRACK 01 AUDIO
    TITLE "0:"
    INDEX 01 00:00:00
  TRACK 02 AUDIO
    TITLE "2:cjc093_3644"
    INDEX 01 00:00:01
  TRACK 03 AUDIO
    TITLE "0:"
    INDEX 01 00:01:11
  TRACK 04 AUDIO
    TITLE "3:cjc093_3645"
    INDEX 01 00:01:42
  TRACK 05 AUDIO
    TITLE "0:"
    INDEX 01 00:03:08
  TRACK 06 AUDIO
    TITLE "4:cjc093_3646"
    INDEX 01 00:03:35
  TRACK 07 AUDIO
    TITLE "0:"
    INDEX 01 00:06:39
  TRACK 08 AUDIO
    TITLE "2:cjc093_3647"
    INDEX 01 00:07:51
  TRACK 09 AUDIO
    TITLE "0:"
    INDEX 01 00:08:56
  TRACK 10 AUDIO
    TITLE "3:cjc093_3648"
    INDEX 01 00:09:22
  TRACK 11 AUDIO
    TITLE "0:"
    INDEX 01 00:10:68
  TRACK 12 AUDIO
    TITLE "4:cjc093_3649"
    INDEX 01 00:11:23
  TRACK 13 AUDIO
    TITLE "0:"
    INDEX 01 00:14:00
  TRACK 14 AUDIO
    TITLE "2:cjc093_3650"
    INDEX 01 00:15:15
  TRACK 15 AUDIO
    TITLE "0:"
    INDEX 01 00:16:20
  TRACK 16 AUDIO
    TITLE "3:cjc093_3651"
    INDEX 01 00:16:65
  TRACK 17 AUDIO
    TITLE "0:"
    INDEX 01 00:19:36
  TRACK 18 AUDIO
    TITLE "4:cjc093_3652"
    INDEX 01 00:19:73
  TRACK 19 AUDIO
    TITLE "0:"
    INDEX 01 00:23:20
  TRACK 20 AUDIO
    TITLE "2:cjc093_3653"
    INDEX 01 00:24:31
  TRACK 21 AUDIO
    TITLE "0:"
    INDEX 01 00:25:50
  TRACK 22 AUDIO
    TITLE "3:cjc093_3654"
    INDEX 01 00:26:09
  TRACK 23 AUDIO
    TITLE "0:"
    INDEX 01 00:27:59
  TRACK 24 AUDIO
    TITLE "4:cjc093_3655"
    INDEX 01 00:28:08
  TRACK 25 AUDIO
    TITLE "0:"
    INDEX 01 00:31:27
  TRACK 26 AUDIO
    TITLE "2:cjc093_3656"
    INDEX 01 00:32:39
  TRACK 27 AUDIO
    TITLE "0:"
    INDEX 01 00:33:44
  TRACK 28 AUDIO
    TITLE "3:cjc093_3657"
    INDEX 01 00:33:73
  TRACK 29 AUDIO
    TITLE "0:"
    INDEX 01 00:36:17
  TRACK 30 AUDIO
    TITLE "4:cjc093_3658"
    INDEX 01 00:36:46
  TRACK 31 AUDIO
    TITLE "0:"
    INDEX 01 00:39:47
  TRACK 32 AUDIO
    TITLE "3:cjc093_3659"
    INDEX 01 00:40:68
  TRACK 33 AUDIO
    TITLE "0:"
    INDEX 01 00:42:06
  TRACK 34 AUDIO
    TITLE "4:cjc093_3660"
    INDEX 01 00:42:31
  TRACK 35 AUDIO
    TITLE "0:"
    INDEX 01 00:45:24
  TRACK 36 AUDIO
    TITLE "2:cjc093_3661"
    INDEX 01 00:46:37
  TRACK 37 AUDIO
    TITLE "0:"
    INDEX 01 00:47:32
  TRACK 38 AUDIO
    TITLE "3:cjc093_3662"
    INDEX 01 00:48:08
  TRACK 39 AUDIO
    TITLE "0:"
    INDEX 01 00:49:57
  TRACK 40 AUDIO
    TITLE "4:cjc093_3663"
    INDEX 01 00:50:27
  TRACK 41 AUDIO
    TITLE "0:"
    INDEX 01 00:52:51
  TRACK 42 AUDIO
    TITLE "3:cjc093_3664"
    INDEX 01 00:53:58
  TRACK 43 AUDIO
    TITLE "0:"
    INDEX 01 00:55:30
  TRACK 44 AUDIO
    TITLE "4:cjc093_3665"
    INDEX 01 00:55:57
  TRACK 45 AUDIO
    TITLE "0:"
    INDEX 01 00:58:54
  TRACK 46 AUDIO
    TITLE "2:cjc093_3666"
    INDEX 01 00:59:63
  TRACK 47 AUDIO
    TITLE "0:"
    INDEX 01 01:00:68
  TRACK 48 AUDIO
    TITLE "3:cjc093_3667"
    INDEX 01 01:01:44
  TRACK 49 AUDIO
    TITLE "0:"
    INDEX 01 01:03:47
  TRACK 50 AUDIO
    TITLE "4:cjc093_3668"
    INDEX 01 01:04:13
  TRACK 51 AUDIO
    TITLE "0:"
    INDEX 01 01:07:47
  TRACK 52 AUDIO
    TITLE "2:cjc093_3669"
    INDEX 01 01:08:42
  TRACK 53 AUDIO
    TITLE "0:"
    INDEX 01 01:09:50
  TRACK 54 AUDIO
    TITLE "3:cjc093_3670"
    INDEX 01 01:10:12
  TRACK 55 AUDIO
    TITLE "0:"
    INDEX 01 01:11:39
  TRACK 56 AUDIO
    TITLE "4:cjc093_3671"
    INDEX 01 01:11:45
  TRACK 57 AUDIO
    TITLE "0:"
    INDEX 01 01:15:44
  TRACK 58 AUDIO
    TITLE "2:cjc093_3672"
    INDEX 01 01:16:56
  TRACK 59 AUDIO
    TITLE "0:"
    INDEX 01 01:17:53
  TRACK 60 AUDIO
    TITLE "3:cjc093_3673"
    INDEX 01 01:17:73
  TRACK 61 AUDIO
    TITLE "0:"
    INDEX 01 01:19:38
  TRACK 62 AUDIO
    TITLE "4:cjc093_3674"
    INDEX 01 01:19:60
  TRACK 63 AUDIO
    TITLE "0:"
    INDEX 01 01:23:60
  TRACK 64 AUDIO
    TITLE "3:cjc093_3675"
    INDEX 01 01:24:71
  TRACK 65 AUDIO
    TITLE "0:"
    INDEX 01 01:26:48
  TRACK 66 AUDIO
    TITLE "4:cjc093_3676"
    INDEX 01 01:27:14
  TRACK 67 AUDIO
    TITLE "0:"
    INDEX 01 01:31:00
